<?xml version="1.0" encoding="UTF-8" standalone="no"?>
<!-- Generator: Adobe Illustrator 19.2.1, SVG Export Plug-In . SVG Version: 6.00 Build 0)  -->

<svg
   version="1.1"
   id="Layer_1"
   x="0px"
   y="0px"
   viewBox="0 0 215 215"
   style="enable-background:new 0 0 215 215;"
   xml:space="preserve"
   sodipodi:docname="CustomQGCLogoWhite.svg"
   inkscape:version="1.1.2 (0a00cf5339, 2022-02-04)"
   xmlns:inkscape="http://www.inkscape.org/namespaces/inkscape"
   xmlns:sodipodi="http://sodipodi.sourceforge.net/DTD/sodipodi-0.dtd"
   xmlns="http://www.w3.org/2000/svg"
   xmlns:svg="http://www.w3.org/2000/svg"><defs
   id="defs26368" /><sodipodi:namedview
   id="namedview26366"
   pagecolor="#ffffff"
   bordercolor="#666666"
   borderopacity="1.0"
   inkscape:pageshadow="2"
   inkscape:pageopacity="0.0"
   inkscape:pagecheckerboard="0"
   showgrid="true"
   inkscape:zoom="1.0430247"
   inkscape:cx="154.41719"
   inkscape:cy="158.11928"
   inkscape:window-width="1280"
   inkscape:window-height="763"
   inkscape:window-x="1280"
   inkscape:window-y="0"
   inkscape:window-maximized="1"
   inkscape:current-layer="g26363"><inkscape:grid
     type="xygrid"
     id="grid31656" /></sodipodi:namedview>
<style
   type="text/css"
   id="style26351">
	.st0{fill:#FFFFFF;}
	.st1{fill:#5ECBF1;}
	.st2{fill:none;stroke:#FFFFFF;stroke-width:8;stroke-miterlimit:10;}
</style>

<path
   class="st1"
   d="m 105.21854,38.218537 c -0.129,0 -0.377,0.018 -0.385,0.019 -33.408999,2.944 -60.043999,29.582 -62.970999,63.031003 -0.002,0.023 -0.021,0.329 -0.022,0.358 -0.001,0.021 -0.009,0.19 -0.009,0.264 0,2.159 1.75,3.909 3.909,3.909 2.097,0 3.808,-1.651 3.904,-3.723 0,0 -0.002,-10e-4 -0.002,-10e-4 2.546,-29.719003 26.159,-53.412003 55.821999,-56.045003 v 0 c 1.981,-0.125 3.565,-1.728 3.658,-3.717 0.003,-0.062 0.004,-0.123 0.004,-0.186 10e-4,-2.159 -1.749,-3.909 -3.908,-3.909 z"
   id="path26355"
   style="fill:#12b886;fill-opacity:1" />
<path
   class="st1"
   d="m 105.22354,53.758537 c -0.14,0 -0.278,0.01 -0.414,0.024 -0.002,0 -0.056,0.005 -0.061,0.006 -25.062999,2.893 -45.006999,23.272 -47.392999,47.639003 0,0 -0.03,0.32 -0.03,0.486 0,2.159 1.75,3.909 3.909,3.909 2.097,0 3.808,-1.651 3.904,-3.723 10e-4,-0.021 10e-4,-0.042 10e-4,-0.063 2.451,-21.156003 19.198,-37.949003 40.324999,-40.463003 v -0.019 c 1.982,-0.124 3.569,-1.709 3.662,-3.7 0.003,-0.061 0.004,-0.123 0.004,-0.185 0.001,-2.161 -1.749,-3.911 -3.907,-3.911 z"
   id="path26357"
   style="fill:#12b886;fill-opacity:1" />
<path
   class="st1"
   d="m 105.21854,69.362537 c -0.247,0 -0.494,0.024 -0.729,0.068 -16.100999,2.732 -28.850999,15.534 -31.504999,31.664003 -0.009,0.043 -0.015,0.086 -0.023,0.129 -0.042,0.236 -0.071,0.562 -0.071,0.704 0,2.159 1.75,3.909 3.909,3.909 0.155,0 0.308,-0.009 0.458,-0.027 1.826,-0.213 3.268,-1.686 3.434,-3.526 0.005,-0.057 0.031,-0.316 0.038,-0.357 2.255,-12.578003 12.164,-22.477003 24.734999,-24.752003 0,0 0.142,-0.013 0.212,-0.022 1.882,-0.22 3.356,-1.777 3.446,-3.697 0.003,-0.062 0.004,-0.123 0.004,-0.186 10e-4,-2.157 -1.749,-3.907 -3.908,-3.907 z"
   id="path26359"
   style="fill:#12b886;fill-opacity:1" />
<g
   id="g26363">
	<path
   class="st2"
   d="M211.5,151.5c0,33-27,60-60,60h-88c-33,0-60-27-60-60v-88c0-33,27-60,60-60h88c33,0,60,27,60,60V151.5z"
   id="path26361"
   style="stroke:#fffaff;stroke-opacity:1" />
</g>
<path
   class="st0"
   d="M 156.89445,79.657982 C 148.50234,64.498434 131.98606,55.400627 116.45446,53.786658 V 77.09844 c 8.88315,1.772243 15.65674,5.825934 20.73199,14.222888 7.53692,-4.19673 12.13972,-7.165235 19.708,-11.663346 z"
   id="path1905-1-2-3"
   style="fill:#fffaff;fill-opacity:1;stroke-width:0.99973"
   sodipodi:nodetypes="ccccc" /><path
   class="st0"
   d="m 137.61818,122.93698 c -3.30948,4.94358 -10.50715,13.73879 -23.6962,15.20153 -16.107371,1.78643 -30.479057,-9.68789 -33.321808,-24.93043 H 57.294881 c 2.836752,27.04 25.722524,48.11586 53.535659,48.11586 v 0.0439 c 18.71439,-0.10209 35.45287,-8.43252 46.87758,-27.27603 -20.08994,-11.15488 0,0 -20.08994,-11.15488 z"
   id="path1905"
   style="fill:#fffaff;fill-opacity:1;stroke-width:0.998859"
   sodipodi:nodetypes="cscccccc" /></svg>
