<?xml version="1.0" encoding="UTF-8" standalone="no"?>
<svg
   version="1.1"
   id="Layer_1"
   x="0"
   y="0"
   width="72"
   height="72"
   style="enable-background:new 0 0 72 72"
   xml:space="preserve"
   sodipodi:docname="CustomQGCLogoFull.svg"
   inkscape:version="1.1.2 (0a00cf5339, 2022-02-04)"
   xmlns:inkscape="http://www.inkscape.org/namespaces/inkscape"
   xmlns:sodipodi="http://sodipodi.sourceforge.net/DTD/sodipodi-0.dtd"
   xmlns="http://www.w3.org/2000/svg"
   xmlns:svg="http://www.w3.org/2000/svg"><defs
   id="defs3091" /><sodipodi:namedview
   id="namedview3089"
   pagecolor="#ffffff"
   bordercolor="#666666"
   borderopacity="1.0"
   inkscape:pageshadow="2"
   inkscape:pageopacity="0.0"
   inkscape:pagecheckerboard="0"
   showgrid="true"
   inkscape:zoom="4.8148107"
   inkscape:cx="53.686067"
   inkscape:cy="39.948732"
   inkscape:window-width="1280"
   inkscape:window-height="763"
   inkscape:window-x="1280"
   inkscape:window-y="0"
   inkscape:window-maximized="1"
   inkscape:current-layer="Layer_1"><inkscape:grid
     type="xygrid"
     id="grid28657" /></sodipodi:namedview>
  <style
   type="text/css"
   id="style873">
    .st1{fill:#4b2c6d}.st2{fill:#5ecbf1}
  </style>
  <path
   class="st1"
   d="M50.922.301H21.078C9.763.803.739 9.417.302 21.077V50.92C.78 62.411 9.766 71.246 21.078 71.697H50.92c11.448-.331 20.533-9.834 20.776-20.776V21.077C71.342 10.284 62.925.735 50.922.301Z"
   id="path877-3"
   style="fill:#fff;fill-opacity:1;" />
  <path
   class="st1"
   d="M49.669 3.302H22.33c-10.857-.379-19.4 8.495-19.03 19.03V49.67c-.348 10.622 8.402 19.389 19.03 19.032h27.337c10.788.164 19.345-8.21 19.03-19.03v-27.34c.28-10.837-8.471-19.314-19.03-19.031Z"
   id="path877-1"
   style="fill:#000000;fill-opacity:1" />
  <path
   class="st2"
   d="m 35.348851,12.337276 h -0.137 c -11.423,0.992 -20.52,10.123 -21.546,21.546 v 0.24 c 0,0.752 0.616,1.334 1.334,1.334 0.718,0 1.3,-0.581 1.334,-1.265 0.855,-10.157 8.96,-18.263 19.084,-19.152 a 1.333,1.333 0 0 0 1.265,-1.265 v -0.068 c 0.034,-0.788 -0.581,-1.37 -1.334,-1.37 z"
   id="path879"
   style="fill:#12b886;fill-opacity:1" />
  <path
   class="st2"
   d="m 35.348851,17.638276 h -0.171 c -8.584,0.992 -15.39,7.969 -16.211,16.279 v 0.171 c 0,0.752 0.616,1.334 1.334,1.334 0.718,0 1.3,-0.581 1.334,-1.265 v -0.034 c 0.855,-7.25 6.566,-12.996 13.783,-13.851 a 1.333,1.333 0 0 0 1.265,-1.265 v -0.068 c 0.034,-0.719 -0.581,-1.301 -1.334,-1.301 z"
   id="path881"
   style="fill:#12b886;fill-opacity:1" />
  <path
   class="st2"
   d="m 35.348851,22.973276 c -0.068,0 -0.171,0 -0.239,0.034 -5.506,0.923 -9.85,5.301 -10.773,10.807 v 0.034 c 0,0.068 -0.034,0.205 -0.034,0.239 0,0.752 0.581,1.334 1.334,1.334 h 0.171 c 0.616,-0.068 1.129,-0.581 1.163,-1.197 v -0.137 c 0.787,-4.275 4.172,-7.661 8.482,-8.447 h 0.068 c 0.65,-0.068 1.163,-0.616 1.163,-1.265 v -0.068 c 0.033,-0.718 -0.582,-1.334 -1.335,-1.334 z"
   id="path883"
   style="fill:#12b886;fill-opacity:1" />
  <path
   class="st0"
   d="M 53.076886,26.483484 C 50.20729,21.299833 44.559723,18.18893 39.248851,17.637048 v 7.971228 c 3.037496,0.606 5.35366,1.992119 7.089092,4.863362 2.577172,-1.435023 4.151043,-2.450077 6.738943,-3.988154 z"
   id="path1905-1-2-3"
   style="fill:#ffffff;fill-opacity:1;stroke-width:0.341849"
   sodipodi:nodetypes="ccccc" /><path
   class="st0"
   d="m 46.485562,41.282281 c -1.131645,1.690399 -3.59281,4.697832 -8.10266,5.198006 -5.507751,0.610848 -10.422,-3.312676 -11.394047,-8.5247 h -7.969 c 0.969996,9.24605 8.795547,16.452715 18.305955,16.452715 v 0.01503 c 6.39919,-0.03492 12.122737,-2.883409 16.029301,-9.326752 -6.869549,-3.814299 0,0 -6.869549,-3.814299 z"
   id="path1905"
   style="fill:#fffffe;fill-opacity:1;stroke-width:0.341549"
   sodipodi:nodetypes="cscccccc" />
</svg>
